<?xml version="1.0" encoding="iso-8859-1"?>
<!-- Generator: Adobe Illustrator 19.0.0, SVG Export Plug-In . SVG Version: 6.00 Build 0)  -->
<svg version="1.1" id="Layer_1" xmlns="http://www.w3.org/2000/svg" xmlns:xlink="http://www.w3.org/1999/xlink" x="0px" y="0px"
	 viewBox="0 0 512 512" style="enable-background:new 0 0 512 512;" xml:space="preserve">
<g>
	<g>
		<path d="M455.661,221.068h-16.183v-26.922h19.565v-33.391h-21.15c-7.846-41.422-44.292-72.852-87.963-72.852h-53.382
			c0.501-2.568,0.771-5.217,0.771-7.929c0-22.784-18.536-41.321-41.321-41.321c-22.785,0-41.321,18.537-41.321,41.321
			c0,2.713,0.27,5.362,0.771,7.929h-53.382c-43.67,0-80.117,31.43-87.963,72.852h-21.15v33.391h19.565v26.922H56.339
			C25.274,221.068,0,246.342,0,277.407s25.274,56.339,56.339,56.339h16.183v139.601h366.957v-139.6h16.183
			c31.065,0,56.339-25.274,56.339-56.339C512,246.343,486.726,221.068,455.661,221.068z M72.521,300.356H56.339
			c-12.653,0-22.948-10.294-22.948-22.948c0-12.654,10.295-22.949,22.948-22.949h16.183V300.356z M256,72.044
			c4.372,0,7.929,3.557,7.929,7.929c0,4.372-3.557,7.929-7.929,7.929c-4.372,0-7.929-3.557-7.929-7.929
			C248.071,75.601,251.628,72.044,256,72.044z M162.069,121.294H349.93c25.154,0,46.497,16.623,53.623,39.461H108.447
			C115.573,137.917,136.915,121.294,162.069,121.294z M406.087,439.957H105.913v-0.001v-245.81h300.174V439.957z M455.661,300.356
			h-16.183V254.46h16.183c12.653,0,22.948,10.295,22.948,22.949C478.609,290.061,468.314,300.356,455.661,300.356z"/>
	</g>
</g>
<g>
</g>
<g>
</g>
<g>
</g>
<g>
</g>
<g>
</g>
<g>
</g>
<g>
</g>
<g>
</g>
<g>
</g>
<g>
</g>
<g>
</g>
<g>
</g>
<g>
</g>
<g>
</g>
<g>
</g>
</svg>
